# xmcd CD database file
#
# Track frame offsets:
#	150
#	22329
#	47266
#	71600
#	97766
#
# Disc length: 1749 seconds
#
# Revision: 0
# Processed by: cddbd v1.5.1PL0 Copyright (c) Steve Scherf et al.
# Submitted via: CDex 1.51
#
DISCID=3606d305
DTITLE=Kyu!内庁色部職楽部 - 正暦の夏
DYEAR=1900
DGENRE=未分類 (日本)
TTITLE0=月童 -moon child- - kou
TTITLE1=緑 -the way so far-
TTITLE2=蝉衣 -thin clothes-
TTITLE3=神薙 -dissidents-
TTITLE4=月童 -moon child- - 子山田宗治
EXTD=
EXTT0=
EXTT1=
EXTT2=
EXTT3=
EXTT4=
PLAYORDER=
